<?xml version="1.0" encoding="UTF-8" standalone="no"?>
<svg xmlns="http://www.w3.org/2000/svg" width="900" height="240" viewBox="0 0 900 240">
  <rect width="100%" height="100%" fill="white"/>

  <!-- Lotus Symbol -->
  <g transform="translate(130,120) scale(1.1)">
    <path d="M0 -40 C-10 -20, -10 10, 0 30 C10 10, 10 -20, 0 -40 Z" fill="#2F5D50"/>
    <path d="M-30 -20 C-45 0, -35 25, -10 35 C-15 10, -15 -10, -30 -20 Z" fill="#2F5D50"/>
    <path d="M30 -20 C45 0, 35 25, 10 35 C15 10, 15 -10, 30 -20 Z" fill="#2F5D50"/>
    <path d="M-15 -30 C-30 -10, -25 10, -5 20 C-5 0, -5 -20, -15 -30 Z" fill="#3F7A6A"/>
    <path d="M15 -30 C30 -10, 25 10, 5 20 C5 0, 5 -20, 15 -30 Z" fill="#3F7A6A"/>
  </g>

  <!-- Text -->
  <text x="260" y="140"
        font-family="Georgia, 'Times New Roman', serif"
        font-size="72"
        fill="#2F5D50"
        letter-spacing="2">
    Anjara Retreats
  </text>
</svg>
